<svg width="30" height="30" viewBox="0 0 30 30" fill="none" xmlns="http://www.w3.org/2000/svg">
<path d="M25.3125 0H4.6875C2.09867 0 0 2.09867 0 4.6875V25.3125C0 27.9013 2.09867 30 4.6875 30H25.3125C27.9013 30 30 27.9013 30 25.3125V4.6875C30 2.09867 27.9013 0 25.3125 0Z" fill="#231E1B"/>
<path fill-rule="evenodd" clip-rule="evenodd" d="M14.9771 7.68018C10.8486 7.68018 7.5 11.0288 7.5 15.1572C7.5 18.46 9.65596 21.2582 12.5917 22.2673C12.9587 22.3132 13.0963 22.0838 13.0963 21.9004C13.0963 21.7169 13.0963 21.2582 13.0963 20.616C11.0321 21.0747 10.5734 19.6068 10.5734 19.6068C10.2523 18.7352 9.74771 18.5059 9.74771 18.5059C9.05963 18.0471 9.79358 18.0471 9.79358 18.0471C10.5275 18.093 10.9404 18.827 10.9404 18.827C11.6284 19.9738 12.6835 19.6527 13.0963 19.4692C13.1422 18.9646 13.3716 18.6435 13.555 18.46C11.9037 18.2765 10.1606 17.6343 10.1606 14.7444C10.1606 13.9187 10.4358 13.2765 10.9404 12.726C10.8945 12.5884 10.6193 11.8086 11.0321 10.7994C11.0321 10.7994 11.6743 10.616 13.0963 11.5793C13.6927 11.3958 14.3349 11.3499 14.9771 11.3499C15.6193 11.3499 16.2615 11.4416 16.8578 11.5793C18.2798 10.616 18.922 10.7994 18.922 10.7994C19.3349 11.8086 19.0596 12.5884 19.0138 12.7719C19.4725 13.2765 19.7936 13.9646 19.7936 14.7903C19.7936 17.6802 18.0505 18.2765 16.3991 18.46C16.6743 18.6894 16.9037 19.1481 16.9037 19.8361C16.9037 20.8453 16.9037 21.6251 16.9037 21.9004C16.9037 22.0838 17.0413 22.3132 17.4083 22.2673C20.3899 21.2582 22.5 18.46 22.5 15.1572C22.4541 11.0288 19.1055 7.68018 14.9771 7.68018Z" fill="white"/>
</svg>
