<svg width="30" height="30" viewBox="0 0 30 30" fill="none" xmlns="http://www.w3.org/2000/svg">
<path d="M25.3125 0H4.6875C2.09867 0 0 2.09867 0 4.6875V25.3125C0 27.9013 2.09867 30 4.6875 30H25.3125C27.9013 30 30 27.9013 30 25.3125V4.6875C30 2.09867 27.9013 0 25.3125 0Z" fill="#F00073"/>
<path d="M15 8.625C17.0625 8.625 17.3438 8.625 18.1875 8.625C18.9375 8.625 19.3125 8.8125 19.5938 8.90625C19.9687 9.09375 20.25 9.1875 20.5312 9.46875C20.8125 9.75 21 10.0313 21.0938 10.4063C21.1875 10.6875 21.2812 11.0625 21.375 11.8125C21.375 12.6563 21.375 12.8438 21.375 15C21.375 17.1562 21.375 17.3438 21.375 18.1875C21.375 18.9375 21.1875 19.3125 21.0938 19.5938C20.9062 19.9687 20.8125 20.25 20.5312 20.5312C20.25 20.8125 19.9687 21 19.5938 21.0938C19.3125 21.1875 18.9375 21.2812 18.1875 21.375C17.3438 21.375 17.1562 21.375 15 21.375C12.8438 21.375 12.6563 21.375 11.8125 21.375C11.0625 21.375 10.6875 21.1875 10.4063 21.0938C10.0313 20.9062 9.75 20.8125 9.46875 20.5312C9.1875 20.25 9 19.9687 8.90625 19.5938C8.8125 19.3125 8.71875 18.9375 8.625 18.1875C8.625 17.3438 8.625 17.1562 8.625 15C8.625 12.8438 8.625 12.6563 8.625 11.8125C8.625 11.0625 8.8125 10.6875 8.90625 10.4063C9.09375 10.0313 9.1875 9.75 9.46875 9.46875C9.75 9.1875 10.0313 9 10.4063 8.90625C10.6875 8.8125 11.0625 8.71875 11.8125 8.625C12.6563 8.625 12.9375 8.625 15 8.625ZM15 7.21875C12.8438 7.21875 12.6563 7.21875 11.8125 7.21875C10.9688 7.21875 10.4063 7.40625 9.9375 7.59375C9.46875 7.78125 9 8.0625 8.53125 8.53125C8.0625 9 7.875 9.375 7.59375 9.9375C7.40625 10.4063 7.3125 10.9688 7.21875 11.8125C7.21875 12.6563 7.21875 12.9375 7.21875 15C7.21875 17.1562 7.21875 17.3438 7.21875 18.1875C7.21875 19.0312 7.40625 19.5938 7.59375 20.0625C7.78125 20.5312 8.0625 21 8.53125 21.4688C9 21.9375 9.375 22.125 9.9375 22.4063C10.4063 22.5938 10.9688 22.6875 11.8125 22.7812C12.6563 22.7812 12.9375 22.7812 15 22.7812C17.0625 22.7812 17.3438 22.7812 18.1875 22.7812C19.0312 22.7812 19.5938 22.5938 20.0625 22.4063C20.5312 22.2188 21 21.9375 21.4688 21.4688C21.9375 21 22.125 20.625 22.4063 20.0625C22.5938 19.5938 22.6875 19.0312 22.7812 18.1875C22.7812 17.3438 22.7812 17.0625 22.7812 15C22.7812 12.9375 22.7812 12.6563 22.7812 11.8125C22.7812 10.9688 22.5938 10.4063 22.4063 9.9375C22.2188 9.46875 21.9375 9 21.4688 8.53125C21 8.0625 20.625 7.875 20.0625 7.59375C19.5938 7.40625 19.0312 7.3125 18.1875 7.21875C17.3438 7.21875 17.1562 7.21875 15 7.21875Z" fill="white"/>
<path d="M15 10.9688C12.75 10.9688 10.9688 12.75 10.9688 15C10.9688 17.25 12.75 19.0312 15 19.0312C17.25 19.0312 19.0312 17.25 19.0312 15C19.0312 12.75 17.25 10.9688 15 10.9688ZM15 17.625C13.5938 17.625 12.375 16.5 12.375 15C12.375 13.5938 13.5 12.375 15 12.375C16.4062 12.375 17.625 13.5 17.625 15C17.625 16.4062 16.4062 17.625 15 17.625Z" fill="white"/>
<path d="M19.125 11.8125C19.6428 11.8125 20.0625 11.3928 20.0625 10.875C20.0625 10.3572 19.6428 9.9375 19.125 9.9375C18.6072 9.9375 18.1875 10.3572 18.1875 10.875C18.1875 11.3928 18.6072 11.8125 19.125 11.8125Z" fill="white"/>
</svg>
