<svg width="30" height="30" viewBox="0 0 30 30" fill="none" xmlns="http://www.w3.org/2000/svg">
<path d="M25.3125 0H4.6875C2.09867 0 0 2.09867 0 4.6875V25.3125C0 27.9013 2.09867 30 4.6875 30H25.3125C27.9013 30 30 27.9013 30 25.3125V4.6875C30 2.09867 27.9013 0 25.3125 0Z" fill="#2867B2"/>
<path d="M10.875 22.5H7.6875V12.4688H10.875V22.5ZM9.28125 11.0625C8.25 11.0625 7.5 10.3125 7.5 9.28125C7.5 8.25 8.34375 7.5 9.28125 7.5C10.3125 7.5 11.0625 8.25 11.0625 9.28125C11.0625 10.3125 10.3125 11.0625 9.28125 11.0625ZM22.5 22.5H19.3125V17.0625C19.3125 15.4688 18.6562 15 17.7187 15C16.7812 15 15.8437 15.75 15.8437 17.1562V22.5H12.6562V12.4688H15.6562V13.875C15.9375 13.2188 17.0625 12.1875 18.6562 12.1875C20.4375 12.1875 22.3125 13.2187 22.3125 16.3125V22.5H22.5Z" fill="white"/>
</svg>
