<svg width="26" height="27" viewBox="0 0 26 27" fill="none" xmlns="http://www.w3.org/2000/svg">
<path d="M10.3376 0C4.62246 0 0 4.70469 0 10.5215C0 16.3383 4.62246 21.043 10.3376 21.043C12.378 21.043 14.2665 20.4337 15.8674 19.399L23.3356 27L25.92 24.3696L18.5469 16.8847C19.8723 15.115 20.6752 12.9222 20.6752 10.5215C20.6752 4.70469 16.0527 0 10.3376 0ZM10.3376 2.47564C14.7154 2.47564 18.2428 6.06581 18.2428 10.5215C18.2428 14.9772 14.7154 18.5673 10.3376 18.5673C5.95979 18.5673 2.43238 14.9772 2.43238 10.5215C2.43238 6.06581 5.95979 2.47564 10.3376 2.47564Z" fill="#FEF200"/>
</svg>
